# xmcd
# 
# Track frame offsets:
#     150
#     10515
#     21375
#     32005
#     43640
#     54595
#     66490
#     77102
#     89380
#     100587
#     121415
#     134750
#     146860
#     158902
#     173480
#     184710
# 
# Disc length: 2694
# 
# Revision: 70
# Processed by: cddbd v1.5.2PL0 Copyright (c) Steve Scherf et al.
# Submitted via: fre:ac v1.0.31
# 
DISCID=d70a8410
DTITLE=Various Artist - Forrest Gump
DYEAR=1994
DGENRE=Soundtrack
TTITLE0=Elvis Presley - Hound Dog
TTITLE1=Duane Eddy - Rebel Rouser
TTITLE2=Clarence "Frogman" Henry - But I Do
TTITLE3=The Rooftop Singers - Walk Right In
TTITLE4=Wilson Pickett - Land Of 1000 Dances
TTITLE5=Joan Baez - Blowin' In The Wind
TTITLE6=Creedence Clearwater Revival - Fortunate Son
TTITLE7=The Four Tops - I Can't Help Myself
TTITLE8=Aretha Franklin - Respect
TTITLE9=Bob Dylan - Rainy Day Women
TTITLE10=The Beach Boys - Sloop John B
TTITLE11=The Mamas And The Papas - California Dreamin'
TTITLE12=Buffalo Springfield - For What It's Worth
TTITLE13=Jackie DeShannon - What The World Needs Now Is Love
TTITLE14=The Doors - Break On Through
TTITLE15=Simon and Garfunkel - Mrs Robinson
EXTD=
EXTT0=
EXTT1=
EXTT2=
EXTT3=
EXTT4=
EXTT5=
EXTT6=
EXTT7=
EXTT8=
EXTT9=
EXTT10=
EXTT11=
EXTT12=
EXTT13=
EXTT14=
EXTT15=
PLAYORDER=
